PathFileType	4	(X/Y/Z)	 normalP102.trc
DataRate	CameraRate	NumFrames	NumMarkers	Units	OrigDataRate	OrigDataStartFrame	OrigNumFrames
100	100	8	49	M	100	169	233
Frame#	Time	RM1D			RM5D			RM2B			LM1D			LM5D			LM2B			RCAL			LCAL			RLMAL			LLMAL			RSTL			LSTL			RFLE			LFLE			RHFIB			LHFIB			RTTUB			LTTUB			RSSH			LSSH			RTL			LTL			RTAP			RTAD			LTAP			LTAD			RTPP			RTPD			LTPP			LTPD			RPSIS			LPSIS			RASIS			LASIS			T10			T2			IJ			SA			RACR			LACR			RHLE			LHLE			RUSP			LUSP			RCB			LCB			IN			LHME			RHME			
		X1	Y1	Z1	X2	Y2	Z2	X3	Y3	Z3	X4	Y4	Z4	X5	Y5	Z5	X6	Y6	Z6	X7	Y7	Z7	X8	Y8	Z8	X9	Y9	Z9	X10	Y10	Z10	X11	Y11	Z11	X12	Y12	Z12	X13	Y13	Z13	X14	Y14	Z14	X15	Y15	Z15	X16	Y16	Z16	X17	Y17	Z17	X18	Y18	Z18	X19	Y19	Z19	X20	Y20	Z20	X21	Y21	Z21	X22	Y22	Z22	X23	Y23	Z23	X24	Y24	Z24	X25	Y25	Z25	X26	Y26	Z26	X27	Y27	Z27	X28	Y28	Z28	X29	Y29	Z29	X30	Y30	Z30	X31	Y31	Z31	X32	Y32	Z32	X33	Y33	Z33	X34	Y34	Z34	X35	Y35	Z35	X36	Y36	Z36	X37	Y37	Z37	X38	Y38	Z38	X39	Y39	Z39	X40	Y40	Z40	X41	Y41	Z41	X42	Y42	Z42	X43	Y43	Z43	X44	Y44	Z44	X45	Y45	Z45	X46	Y46	Z46	X47	Y47	Z47	X48	Y48	Z48	X49	Y49	Z49	
169	1.6900	0.777925	0.098175	-0.188260	0.735934	0.060311	-0.114390	0.724015	0.099401	-0.159740	0.252326	0.043103	-0.288547	0.216249	0.028591	-0.378816	0.210386	0.060715	-0.322774	0.575698	0.044785	-0.207615	0.041337	0.056747	-0.312235	0.614782	0.098681	-0.152385	0.104445	0.090388	-0.357466	0.634237	0.061031	-0.232359	0.095232	0.048206	-0.277016	0.548520	0.544191	-0.132656	0.241277	0.525604	-0.407539	0.530401	0.466232	-0.124889	0.205679	0.469184	-0.412834	0.604549	0.475332	-0.174020	0.253559	0.446277	-0.352175	0.616761	0.389067	-0.192996	0.185629	0.212838	-0.324188	0.468716	0.722475	-0.085837	0.283482	0.708084	-0.449064	0.533337	0.792444	-0.163664	0.561067	0.713758	-0.166431	0.393976	0.741273	-0.381889	0.356547	0.654389	-0.378367	0.361458	0.676527	-0.166720	0.414278	0.599045	-0.173020	0.178404	0.738303	-0.347500	0.169110	0.652594	-0.345373	0.241365	1.078677	-0.213048	0.235677	1.077949	-0.311908	0.427246	1.045861	-0.163593	0.418054	1.046269	-0.385500	0.253413	1.267741	-0.263952	0.262657	1.491968	-0.262598	0.416486	1.463861	-0.270068	0.435048	1.417572	-0.266978	0.333201	1.461884	-0.050770	0.340222	1.477270	-0.473826	0.307288	1.122459	0.005753	0.317085	1.137497	-0.553924	0.413656	0.874195	0.018058	0.475763	0.919055	-0.566968	0.471902	1.634966	-0.179999	0.476380	1.643354	-0.321417	0.303282	1.569136	-0.262792	0.310502	1.116145	-0.462218	0.288560	1.107080	-0.081286	
170	1.7000	0.812722	0.107004	-0.188378	0.772824	0.067262	-0.114452	0.758427	0.105340	-0.159827	0.252638	0.043310	-0.289030	0.216004	0.028666	-0.378606	0.210755	0.060737	-0.323127	0.612582	0.044501	-0.207117	0.041523	0.058262	-0.311873	0.649325	0.099834	-0.152034	0.104969	0.091158	-0.357147	0.670217	0.063355	-0.232195	0.095565	0.049270	-0.276608	0.560559	0.539809	-0.132738	0.248105	0.524618	-0.407436	0.546482	0.462914	-0.124948	0.211327	0.468775	-0.413110	0.619118	0.474716	-0.174713	0.259529	0.444946	-0.352199	0.635447	0.389672	-0.193355	0.188141	0.212539	-0.324220	0.478688	0.716899	-0.085262	0.291946	0.706803	-0.449250	0.544134	0.785633	-0.164020	0.570735	0.706980	-0.166902	0.403388	0.738955	-0.383135	0.365036	0.652652	-0.379121	0.373622	0.673039	-0.165769	0.425866	0.594850	-0.172594	0.188457	0.738079	-0.346151	0.178300	0.652473	-0.344168	0.254736	1.075467	-0.211456	0.248096	1.074933	-0.310350	0.441125	1.042943	-0.164008	0.429964	1.043878	-0.385711	0.265833	1.265043	-0.262778	0.275542	1.489251	-0.261749	0.429369	1.460900	-0.269518	0.447871	1.414552	-0.266509	0.346628	1.458993	-0.050048	0.353205	1.474505	-0.473095	0.320405	1.119576	0.006501	0.331213	1.134664	-0.553540	0.426448	0.871181	0.018905	0.490707	0.916808	-0.566388	0.484969	1.632007	-0.179320	0.489402	1.640490	-0.320727	0.316232	1.566262	-0.262028	0.326334	1.113485	-0.462249	0.301722	1.104163	-0.080497	
171	1.7100	0.845134	0.115583	-0.188985	0.806988	0.074011	-0.114952	0.789907	0.111062	-0.160077	0.252926	0.043437	-0.289254	0.215747	0.028825	-0.378261	0.211390	0.061103	-0.323927	0.647328	0.044093	-0.205351	0.041950	0.060008	-0.310964	0.681609	0.101627	-0.152172	0.105455	0.092267	-0.356850	0.703455	0.066528	-0.232787	0.095967	0.050463	-0.276132	0.572365	0.535527	-0.132616	0.255160	0.523712	-0.407398	0.561484	0.459859	-0.124649	0.217687	0.468281	-0.412691	0.633587	0.474391	-0.175287	0.265993	0.443750	-0.352325	0.653135	0.390366	-0.193654	0.190647	0.212157	-0.323903	0.489123	0.711655	-0.083989	0.300723	0.705672	-0.449462	0.554996	0.778476	-0.164499	0.580329	0.699965	-0.167627	0.413264	0.736694	-0.384419	0.373858	0.650976	-0.379747	0.386325	0.669631	-0.164608	0.434137	0.591881	-0.169728	0.199326	0.737708	-0.344637	0.188095	0.652383	-0.342681	0.268284	1.072278	-0.209677	0.260663	1.071965	-0.308588	0.455145	1.039987	-0.164433	0.442037	1.041465	-0.386023	0.278444	1.262272	-0.261492	0.288511	1.486523	-0.260862	0.442359	1.457888	-0.268921	0.460789	1.411480	-0.265984	0.360180	1.456024	-0.049260	0.366129	1.471682	-0.472367	0.333615	1.116606	0.007294	0.345291	1.131792	-0.553053	0.439335	0.868092	0.019767	0.505428	0.914369	-0.565695	0.498087	1.629014	-0.178587	0.502547	1.637558	-0.319946	0.329245	1.563396	-0.261240	0.340227	1.110476	-0.461806	0.314976	1.101166	-0.079667	
172	1.7200	0.874902	0.123425	-0.190223	0.838645	0.080051	-0.115643	0.820071	0.116720	-0.160812	0.253087	0.043405	-0.289392	0.215580	0.028831	-0.378143	0.211257	0.061060	-0.322813	0.679376	0.045527	-0.205957	0.042449	0.062040	-0.310492	0.711511	0.103642	-0.152782	0.106299	0.093704	-0.357123	0.734583	0.070121	-0.233385	0.096506	0.051915	-0.275915	0.584328	0.531872	-0.132352	0.262472	0.523051	-0.407268	0.576262	0.457081	-0.124375	0.224368	0.467925	-0.412272	0.647272	0.473800	-0.175760	0.272845	0.442599	-0.352576	0.669954	0.391092	-0.193912	0.192413	0.211547	-0.322256	0.499762	0.706682	-0.081941	0.309865	0.704638	-0.449492	0.566162	0.771530	-0.165144	0.590234	0.693121	-0.168569	0.423530	0.734442	-0.385930	0.383334	0.649232	-0.380398	0.399525	0.666315	-0.163422	0.450983	0.587249	-0.170601	0.210917	0.737221	-0.342924	0.198286	0.652304	-0.340882	0.281933	1.069058	-0.207773	0.273442	1.068972	-0.306641	0.469226	1.036954	-0.164838	0.454289	1.039160	-0.386394	0.291345	1.259493	-0.260170	0.301570	1.483825	-0.259897	0.455457	1.454865	-0.268297	0.473801	1.408478	-0.265408	0.373798	1.453002	-0.048391	0.379149	1.468680	-0.471579	0.346941	1.113585	0.008142	0.359373	1.128814	-0.552485	0.452324	0.864952	0.020681	0.519944	0.911724	-0.564950	0.511323	1.626062	-0.177763	0.515707	1.634660	-0.319148	0.342337	1.560544	-0.260345	0.354136	1.107372	-0.461281	0.328309	1.098082	-0.078751	
173	1.7300	0.901946	0.129883	-0.190827	0.867412	0.085200	-0.116767	0.847667	0.121520	-0.161613	0.253234	0.043402	-0.289521	0.215477	0.028849	-0.378053	0.211716	0.061300	-0.323138	0.708283	0.047258	-0.206611	0.043046	0.064444	-0.310206	0.737821	0.105549	-0.153596	0.107368	0.095480	-0.357860	0.762750	0.073484	-0.233967	0.097002	0.053636	-0.275885	0.596761	0.528896	-0.132089	0.270455	0.522402	-0.407061	0.590675	0.454411	-0.124275	0.231465	0.467751	-0.411841	0.660820	0.473012	-0.176050	0.280159	0.441465	-0.352699	0.686154	0.391626	-0.194012	0.195554	0.211518	-0.322257	0.511610	0.702449	-0.080383	0.319727	0.703783	-0.449094	0.578040	0.765222	-0.166106	0.601406	0.687509	-0.169443	0.434302	0.732111	-0.387606	0.393676	0.647410	-0.381410	0.413124	0.663174	-0.162348	0.464446	0.583879	-0.169235	0.222663	0.736933	-0.341066	0.208932	0.652276	-0.338975	0.295678	1.065969	-0.205759	0.286348	1.066113	-0.304640	0.483310	1.033937	-0.165195	0.466686	1.037003	-0.386697	0.304431	1.256759	-0.258810	0.314742	1.481212	-0.258909	0.468667	1.451984	-0.267572	0.486975	1.405554	-0.264804	0.387440	1.450023	-0.047453	0.392123	1.465696	-0.470742	0.360386	1.110527	0.009027	0.373437	1.125794	-0.551784	0.465403	0.861804	0.021643	0.534233	0.908918	-0.564086	0.524575	1.623229	-0.176923	0.528953	1.631836	-0.318324	0.355504	1.557810	-0.259401	0.368065	1.104237	-0.460654	0.341692	1.094982	-0.077797	
174	1.7400	0.926028	0.134224	-0.191611	0.892473	0.088854	-0.117590	0.872119	0.125000	-0.162359	0.253398	0.043382	-0.289687	0.215432	0.028874	-0.378000	0.211656	0.060918	-0.322467	0.733524	0.048650	-0.207229	0.043773	0.067250	-0.310094	0.761768	0.107257	-0.153892	0.108306	0.097551	-0.358092	0.787427	0.076091	-0.234498	0.097708	0.055606	-0.275963	0.609811	0.526406	-0.131889	0.279052	0.521705	-0.406803	0.604901	0.451920	-0.124431	0.239178	0.467679	-0.411459	0.674875	0.472137	-0.176229	0.287962	0.440339	-0.352573	0.702034	0.391841	-0.194073	0.199075	0.211738	-0.322692	0.524047	0.698614	-0.079676	0.329770	0.702750	-0.448553	0.591024	0.760320	-0.167326	0.614565	0.684677	-0.170386	0.444519	0.729868	-0.389112	0.404542	0.645583	-0.382785	0.427052	0.660402	-0.161388	0.475765	0.580279	-0.165613	0.234777	0.736635	-0.339011	0.219860	0.652216	-0.336944	0.309403	1.063084	-0.203750	0.299422	1.063426	-0.302620	0.497257	1.030941	-0.165489	0.479298	1.034948	-0.386918	0.317679	1.254187	-0.257401	0.328048	1.478729	-0.257847	0.481984	1.449262	-0.266826	0.500266	1.402826	-0.264130	0.401118	1.447078	-0.046479	0.405051	1.462830	-0.469834	0.373981	1.107480	0.009911	0.387447	1.122793	-0.550976	0.478555	0.858714	0.022585	0.548205	0.906034	-0.563216	0.537968	1.620586	-0.176019	0.542306	1.629401	-0.317373	0.368776	1.555223	-0.258380	0.382005	1.101141	-0.459926	0.355307	1.091859	-0.076788	
175	1.7500	0.946552	0.136140	-0.192025	0.913465	0.090371	-0.118114	0.892898	0.126436	-0.162926	0.253575	0.043365	-0.289879	0.215451	0.028828	-0.378130	0.212613	0.061393	-0.323133	0.754599	0.049072	-0.207945	0.044377	0.070464	-0.309958	0.782056	0.107816	-0.154426	0.109066	0.099330	-0.357009	0.808261	0.077183	-0.235050	0.098492	0.057897	-0.276240	0.623697	0.524381	-0.131604	0.288258	0.520930	-0.406559	0.619145	0.449573	-0.124648	0.247453	0.467571	-0.411203	0.689798	0.471373	-0.176339	0.296202	0.439184	-0.352490	0.717984	0.391691	-0.194106	0.202848	0.212038	-0.323181	0.538515	0.696115	-0.079956	0.340279	0.701601	-0.448067	0.605201	0.757677	-0.168618	0.628692	0.684498	-0.171924	0.456084	0.727762	-0.390414	0.415737	0.643772	-0.384214	0.441254	0.658023	-0.160545	0.489957	0.577755	-0.164453	0.247049	0.736234	-0.336776	0.231249	0.651816	-0.334941	0.323147	1.060464	-0.201748	0.312724	1.060942	-0.300536	0.511109	1.028135	-0.165611	0.492162	1.032995	-0.387002	0.331169	1.251763	-0.255963	0.341486	1.476353	-0.256729	0.495522	1.446757	-0.265991	0.513779	1.400304	-0.263412	0.414795	1.444273	-0.045451	0.418017	1.460029	-0.468828	0.387767	1.104567	0.010826	0.401410	1.119885	-0.550078	0.491811	0.855709	0.023596	0.561924	0.903165	-0.562283	0.551476	1.618160	-0.175084	0.555689	1.626968	-0.316472	0.382189	1.552793	-0.257283	0.395993	1.098118	-0.459070	0.368967	1.088864	-0.075778	
176	1.7600	0.963176	0.135183	-0.191958	0.929958	0.089198	-0.118473	0.909228	0.125265	-0.163120	0.253442	0.043110	-0.290090	0.215612	0.028775	-0.378195	0.213436	0.061941	-0.323891	0.771335	0.048106	-0.208995	0.045428	0.074001	-0.310353	0.798439	0.106814	-0.155221	0.110637	0.101661	-0.357574	0.825019	0.076410	-0.235792	0.099325	0.060528	-0.276818	0.638689	0.523239	-0.131413	0.297950	0.520170	-0.406336	0.634123	0.447709	-0.124920	0.256381	0.467445	-0.411025	0.705606	0.470763	-0.176469	0.304813	0.437890	-0.352634	0.734115	0.390978	-0.193927	0.206818	0.212456	-0.323521	0.554862	0.695134	-0.080934	0.350982	0.700724	-0.447544	0.619947	0.757548	-0.169972	0.643884	0.685595	-0.173944	0.467759	0.725683	-0.391433	0.427481	0.642031	-0.385381	0.455744	0.656017	-0.159706	0.504748	0.575865	-0.164162	0.259590	0.735408	-0.334328	0.243120	0.651103	-0.333153	0.337021	1.058088	-0.199891	0.326277	1.058645	-0.298537	0.525064	1.025587	-0.165578	0.505277	1.031113	-0.386903	0.344834	1.249491	-0.254520	0.355126	1.474120	-0.255495	0.509264	1.444405	-0.265095	0.527520	1.397979	-0.262585	0.428557	1.441656	-0.044363	0.431033	1.457411	-0.467744	0.401711	1.101859	0.011749	0.415351	1.117202	-0.548989	0.505110	0.852879	0.024606	0.575406	0.900308	-0.561302	0.565172	1.615961	-0.174079	0.569216	1.624723	-0.315474	0.395811	1.550516	-0.256082	0.409979	1.095281	-0.458075	0.382913	1.086035	-0.074730	
